<svg width="40" height="40" viewBox="0 0 40 40" fill="none" xmlns="http://www.w3.org/2000/svg">
<mask id="mask0" style="mask-type:alpha" maskUnits="userSpaceOnUse" x="0" y="0" width="40" height="40">
<circle cx="20" cy="20" r="20" fill="#FFFDFE"/>
</mask>
<g mask="url(#mask0)">
<circle cx="20" cy="20" r="20" fill="black"/>
</g>
<path fill-rule="evenodd" clip-rule="evenodd" d="M20.0024 0.0405273C31.0272 0.0405273 39.9646 8.97717 39.9646 20.0011C39.9646 31.025 31.0272 39.9617 20.0024 39.9617C8.97756 39.9617 0.0401611 31.025 0.0401611 20.0011C0.0401611 8.97717 8.97756 0.0405273 20.0024 0.0405273Z" fill="#2E3148"/>
<path fill-rule="evenodd" clip-rule="evenodd" d="M19.9613 8.48438C26.3215 8.48438 31.4776 13.6404 31.4776 20.0007C31.4776 26.361 26.3215 31.517 19.9613 31.517C13.601 31.517 8.44495 26.361 8.44495 20.0007C8.44495 13.6404 13.601 8.48438 19.9613 8.48438Z" fill="#1B1E36"/>
<path fill-rule="evenodd" clip-rule="evenodd" d="M20.0591 2.91357C19.716 2.91357 19.3061 3.29082 18.8922 4.07809C18.4491 4.92079 18.0398 6.16429 17.6925 7.72639C16.9751 10.9526 16.5636 15.3278 16.5636 19.9991C16.5636 24.6703 16.9751 29.0456 17.6925 32.2718C18.0398 33.8339 18.4491 35.0774 18.8922 35.9201C19.3061 36.7074 19.716 37.0846 20.0591 37.0846C20.4021 37.0846 20.8121 36.7074 21.226 35.9201C21.669 35.0774 22.0783 33.8339 22.4257 32.2718C23.1431 29.0456 23.5546 24.6703 23.5546 19.9991C23.5546 15.3278 23.1431 10.9526 22.4257 7.72639C22.0783 6.16429 21.669 4.92079 21.226 4.07809C20.8121 3.29082 20.4021 2.91357 20.0591 2.91357Z" stroke="#6F7390" stroke-width="0.75"/>
<path fill-rule="evenodd" clip-rule="evenodd" d="M34.8649 11.4572C34.6934 11.1604 34.1614 10.9942 33.2722 11.0296C32.3203 11.0676 31.038 11.3351 29.5106 11.8156C26.3561 12.8079 22.3588 14.6395 18.3108 16.9752C14.2627 19.311 10.6769 21.8549 8.23982 24.089C7.05977 25.1708 6.18682 26.1468 5.67807 26.9517C5.20282 27.7035 5.08087 28.2468 5.25227 28.5434C5.42372 28.8402 5.95572 29.0065 6.84497 28.971C7.79682 28.9331 9.07912 28.6656 10.6065 28.1851C13.761 27.1928 17.7583 25.3612 21.8064 23.0254C25.8545 20.6897 29.4403 18.1458 31.8773 15.9117C33.0574 14.8299 33.9303 13.8539 34.4391 13.049C34.9143 12.2972 35.0363 11.7539 34.8649 11.4572Z" stroke="#6F7390" stroke-width="0.75"/>
<path fill-rule="evenodd" clip-rule="evenodd" d="M34.8649 28.5434C35.0363 28.2468 34.9144 27.7035 34.4391 26.9517C33.9303 26.1468 33.0574 25.1708 31.8774 24.089C29.4403 21.8549 25.8545 19.311 21.8064 16.9752C17.7583 14.6395 13.761 12.8079 10.6065 11.8156C9.07912 11.3351 7.79682 11.0676 6.84497 11.0296C5.95572 10.9942 5.42372 11.1604 5.25227 11.4572C5.08087 11.7539 5.20282 12.2972 5.67807 13.049C6.18682 13.8539 7.05977 14.8299 8.23982 15.9117C10.6769 18.1458 14.2627 20.6897 18.3108 23.0254C22.3588 25.3612 26.3561 27.1928 29.5106 28.1851C31.038 28.6656 32.3203 28.9331 33.2722 28.971C34.1614 29.0065 34.6934 28.8402 34.8649 28.5434Z" stroke="#6F7390" stroke-width="0.75"/>
<path fill-rule="evenodd" clip-rule="evenodd" d="M8.88818 15.1055C9.56693 15.1055 10.1172 15.656 10.1172 16.3351C10.1172 17.0142 9.56693 17.5647 8.88818 17.5647C8.20938 17.5647 7.65918 17.0142 7.65918 16.3351C7.65918 15.656 8.20938 15.1055 8.88818 15.1055Z" fill="#B7B9C8"/>
<path fill-rule="evenodd" clip-rule="evenodd" d="M28.4226 10.895C29.1017 10.895 29.6522 11.4455 29.6522 12.1246C29.6522 12.8037 29.1017 13.3542 28.4226 13.3542C27.7435 13.3542 27.193 12.8037 27.193 12.1246C27.193 11.4455 27.7435 10.895 28.4226 10.895Z" fill="#B7B9C8"/>
<path fill-rule="evenodd" clip-rule="evenodd" d="M17.5824 30.1953C18.2615 30.1953 18.812 30.7456 18.812 31.4243C18.812 32.1031 18.2615 32.6533 17.5824 32.6533C16.9033 32.6533 16.3528 32.1031 16.3528 31.4243C16.3528 30.7456 16.9033 30.1953 17.5824 30.1953Z" fill="#B7B9C8"/>
<path fill-rule="evenodd" clip-rule="evenodd" d="M19.9906 17.9087C21.1403 17.9087 22.0724 18.8407 22.0724 19.9905C22.0724 21.1402 21.1403 22.0722 19.9906 22.0722C18.8409 22.0722 17.9088 21.1402 17.9088 19.9905C17.9088 18.8407 18.8409 17.9087 19.9906 17.9087Z" fill="#B7B9C8"/>
</svg>
