<svg width="40" height="40" viewBox="0 0 40 40" fill="none" xmlns="http://www.w3.org/2000/svg">
<mask id="mask0" style="mask-type:alpha" maskUnits="userSpaceOnUse" x="0" y="0" width="40" height="40">
<circle cx="20" cy="20" r="20" fill="#FFFDFE"/>
</mask>
<g mask="url(#mask0)">
<circle cx="20" cy="20" r="19.5" fill="white" stroke="#CCCCCC"/>
<path d="M20.3001 4L6.54578 11.9818V27.8741L20.3001 35.8559L34.0544 27.8741V11.9818L20.3001 4ZM29.9923 25.5223L20.3001 31.081L10.6079 25.5223V14.3336L20.3001 8.70355L29.9923 14.3336V25.5223Z" fill="#002D74"/>
<g style="mix-blend-mode:multiply">
<path style="mix-blend-mode:multiply" d="M20.3001 8.70355V4L6.54578 11.9818V27.8741L20.3001 35.8559V31.081L10.6079 25.5223V14.3336L20.3001 8.70355Z" fill="url(#paint0_linear)"/>
</g>
<g style="mix-blend-mode:multiply">
<path style="mix-blend-mode:multiply" d="M20.3008 31.081V35.7846L34.0551 27.8028V11.9818L20.3008 4V8.70355L29.9929 14.2623V25.451L20.3008 31.081Z" fill="url(#paint1_linear)"/>
</g>
<path d="M26.7858 23.597L20.3007 27.3028L13.8867 23.597V16.1853L20.3007 12.4795L26.7858 16.1853V23.597Z" fill="#002D74"/>
</g>
<defs>
<linearGradient id="paint0_linear" x1="13.4329" y1="35.8146" x2="13.4329" y2="4" gradientUnits="userSpaceOnUse">
<stop stop-color="#002D74" stop-opacity="0"/>
<stop offset="1" stop-color="#002D74"/>
</linearGradient>
<linearGradient id="paint1_linear" x1="27.2079" y1="35.8146" x2="27.2079" y2="4" gradientUnits="userSpaceOnUse">
<stop stop-color="#002D74"/>
<stop offset="1" stop-color="#002D74" stop-opacity="0"/>
</linearGradient>
</defs>
</svg>
