<svg width="40" height="40" viewBox="0 0 40 40" fill="none" xmlns="http://www.w3.org/2000/svg">
<path d="M0 20C0 31.0457 8.95431 40 20 40C31.0457 40 40 31.0457 40 20C40 8.95431 31.0457 0 20 0C8.95431 0 0 8.95431 0 20Z" fill="#14151A"/>
<path d="M5.17111 7.19111C5.41418 6.88552 5.67179 6.59147 5.92941 6.29746C5.94099 6.28292 5.96712 6.27991 5.9787 6.26536C6.00182 6.23626 6.03953 6.21871 6.06269 6.18961L6.08585 6.16052C6.26541 5.99447 6.45655 5.81388 6.67683 5.65645C7.45636 5.06469 8.26535 4.6151 9.11836 4.31928C11.8543 3.35875 14.8999 3.95072 17.2883 6.20548C20.6231 9.33142 20.3244 14.3671 17.6624 17.7142C14.2984 22.7039 8.51728 29.6653 16.5217 35.9013C17.9609 37.0227 19.0286 37.9471 23.562 39.2572C20.5971 39.8037 17.8478 39.6335 14.7878 38.8521C12.6233 37.6301 9.22024 35.0144 8.06247 31.4813C6.31256 26.1235 11.1432 18.1141 13.4779 15.0293C16.6832 10.7602 11.4967 6.13855 7.67829 11.2981C5.68226 13.9869 2.1904 21.5957 3.40385 27.2396C4.11336 30.4403 5.05909 32.7733 8.80886 35.9779C8.11349 35.5675 7.43827 35.1022 6.78324 34.5813C-1.92904 26.4659 -0.918273 13.9177 5.17111 7.19111Z" fill="url(#paint0_linear)"/>
<path d="M34.8289 32.8087C34.5858 33.1145 34.3282 33.4084 34.0706 33.7026C34.0591 33.717 34.0327 33.7199 34.0212 33.7348C33.9981 33.7636 33.9606 33.7813 33.9371 33.8102L33.914 33.8394C33.7348 34.0055 33.5435 34.186 33.3231 34.3435C32.5437 34.9353 31.7347 35.3849 30.8817 35.6808C28.1457 36.641 25.1001 36.0492 22.7118 33.7945C19.3769 30.6686 19.6756 25.6329 22.3376 22.2858C25.7017 17.2961 31.4825 10.3347 23.4783 4.0986C22.0391 2.97734 20.9715 2.05283 16.438 0.742776C19.403 0.196551 22.1522 0.366469 25.2122 1.14802C27.3767 2.36979 30.7799 4.98569 31.9375 8.5188C33.6874 13.8765 28.8568 21.8859 26.5222 24.9707C23.3168 29.2398 28.5033 33.8613 32.3216 28.7019C34.3179 26.0131 37.8094 18.4043 36.5961 12.7604C35.8864 9.55986 34.941 7.22689 31.1912 4.02219C31.8864 4.43242 32.5619 4.89791 33.2167 5.41858C41.929 13.5341 40.9184 26.0823 34.8289 32.8087Z" fill="url(#paint1_linear)"/>
<defs>
<linearGradient id="paint0_linear" x1="0.424253" y1="20" x2="39.5758" y2="20" gradientUnits="userSpaceOnUse">
<stop stop-color="#0082FA"/>
<stop offset="1" stop-color="#00F2FE"/>
</linearGradient>
<linearGradient id="paint1_linear" x1="0.424265" y1="20" x2="39.5758" y2="20" gradientUnits="userSpaceOnUse">
<stop stop-color="#0082FA"/>
<stop offset="1" stop-color="#00F2FE"/>
</linearGradient>
</defs>
</svg>
