<svg width="40" height="40" viewBox="0 0 40 40" fill="none" xmlns="http://www.w3.org/2000/svg">
<mask id="mask0" style="mask-type:alpha" maskUnits="userSpaceOnUse" x="0" y="0" width="40" height="40">
<circle cx="20" cy="20" r="20" fill="#FFFDFE"/>
</mask>
<g mask="url(#mask0)">
<circle cx="20" cy="20" r="20" fill="#FFFDFE"/>
<path d="M12.5329 28.539L3.81569 29.5194L8.93429 17.7089L3.69409 10.5649L16.4355 9.11335L19.8973 1.15234L27.4821 11.4617L36.1993 10.4813L31.1035 22.2347L36.3057 29.3294L23.6289 30.7734L20.1139 38.8484L12.5329 28.539ZM16.1543 27.7561C15.8199 27.9195 15.4627 28.0564 15.0941 28.159L14.7597 28.2502L19.6731 34.9306L21.4173 30.9178L21.1019 30.876C19.3843 30.6594 17.8225 29.7322 16.8155 28.3414L16.3253 27.665L16.1543 27.7561ZM14.4443 21.6989L18.4077 27.1824C19.2133 28.2958 20.5167 28.9608 21.8923 28.9608C22.0519 28.9608 22.2115 28.9531 22.3673 28.9342L32.7109 27.7561L28.5917 22.136C28.3865 21.8585 28.1509 21.6077 27.8887 21.3873L27.6455 21.1859L24.6967 27.8474L19.5667 21.0567L14.4443 21.6989ZM14.6153 15.0223C13.0801 15.1857 11.7425 16.1699 11.1269 17.5911L6.97349 27.1786L13.8743 26.4034C14.2163 26.3654 14.5507 26.2855 14.8737 26.1677L15.1701 26.0576L10.8989 20.1599L19.3197 19.0921L21.3223 14.3079L14.6153 15.0223ZM21.1323 19.8597L24.2521 23.9903L26.1559 19.6925L26.9919 17.8001C27.6189 16.3827 27.4403 14.7297 26.5207 13.4833L20.3381 5.07014L17.5565 11.4617C17.4197 11.7771 17.3209 12.1077 17.2601 12.4497L17.2069 12.7613L24.4231 11.9975L21.1323 19.8597ZM28.7133 13.3085L28.8349 13.6011C29.5037 15.2009 29.4885 17.0249 28.7893 18.6019L28.4511 19.3619L28.6145 19.4721C28.9261 19.6811 29.2187 19.9243 29.4885 20.1941L29.7355 20.4373L33.0377 12.8183L28.7133 13.3085ZM7.28889 12.1381L9.91849 15.7253L10.1123 15.4745C11.1573 14.1179 12.7267 13.2363 14.4101 13.0577L15.2347 12.9703L15.2499 12.7689C15.2765 12.3547 15.3487 11.9405 15.4589 11.5377L15.5539 11.1957L7.28889 12.1381Z" fill="url(#paint0_linear)"/>
<path d="M18.1608 39.0002C12.6888 38.472 7.77158 35.6258 4.55298 31.1152L6.75698 30.8682C7.12178 31.3166 7.50938 31.746 7.90838 32.1488C10.2986 34.5504 13.2892 36.1692 16.5686 36.838L18.1608 39.0002Z" fill="url(#paint1_linear)"/>
<path d="M22.7512 36.9599C26.3004 36.3861 29.5266 34.7255 32.0917 32.1491C32.3196 31.9173 32.5515 31.6703 32.7833 31.4119L35.4547 31.1079C32.2474 35.6147 27.3378 38.4647 21.8658 39.0005L22.7512 36.9599Z" fill="url(#paint2_linear)"/>
<path d="M35.9979 26.0916C36.7275 24.1498 37.0999 22.1015 37.0999 20.0001C37.0999 18.1457 36.8073 16.3217 36.2335 14.5813L37.3051 12.1113C38.4299 14.5927 38.9999 17.2451 38.9999 20.0001C38.9999 22.7513 38.4299 25.4 37.3089 27.8814L35.9979 26.0916Z" fill="url(#paint3_linear)"/>
<path d="M2.7024 27.9078C1.5738 25.4188 1 22.7626 1 20C1 17.2222 1.5776 14.5508 2.7214 12.0542L4.0286 13.8402C3.28 15.801 2.9 17.872 2.9 20C2.9 21.862 3.1926 23.6898 3.7702 25.4378L2.7024 27.9078Z" fill="url(#paint4_linear)"/>
<path d="M4.63281 8.7748C7.84761 4.3364 12.7268 1.5244 18.1494 1L17.264 3.0368C13.711 3.6068 10.4772 5.2712 7.90841 7.8514C7.71461 8.0452 7.52081 8.2542 7.32701 8.467L4.63281 8.7748Z" fill="url(#paint5_linear)"/>
<path d="M33.2467 9.132C32.8819 8.6836 32.4943 8.2542 32.0915 7.8514C29.7051 5.4536 26.7183 3.8348 23.4464 3.166L21.8542 1C27.3224 1.532 32.2321 4.3782 35.4469 8.885L33.2467 9.132Z" fill="url(#paint6_linear)"/>
</g>
<defs>
<linearGradient id="paint0_linear" x1="4.65159" y1="35.2954" x2="34.2908" y2="5.65621" gradientUnits="userSpaceOnUse">
<stop stop-color="#009DDE"/>
<stop offset="0.5" stop-color="#694D9F"/>
<stop offset="1" stop-color="#ED3554"/>
</linearGradient>
<linearGradient id="paint1_linear" x1="7.88548" y1="38.5291" x2="37.5247" y2="8.88981" gradientUnits="userSpaceOnUse">
<stop stop-color="#009DDE"/>
<stop offset="0.5" stop-color="#694D9F"/>
<stop offset="1" stop-color="#ED3554"/>
</linearGradient>
<linearGradient id="paint2_linear" x1="16.3417" y1="46.9855" x2="45.9809" y2="17.3463" gradientUnits="userSpaceOnUse">
<stop stop-color="#009DDE"/>
<stop offset="0.5" stop-color="#694D9F"/>
<stop offset="1" stop-color="#ED3554"/>
</linearGradient>
<linearGradient id="paint3_linear" x1="13.3299" y1="43.9735" x2="42.9692" y2="14.3343" gradientUnits="userSpaceOnUse">
<stop stop-color="#009DDE"/>
<stop offset="0.5" stop-color="#694D9F"/>
<stop offset="1" stop-color="#ED3554"/>
</linearGradient>
<linearGradient id="paint4_linear" x1="-3.97525" y1="26.6681" x2="25.6639" y2="-2.97112" gradientUnits="userSpaceOnUse">
<stop stop-color="#009DDE"/>
<stop offset="0.5" stop-color="#694D9F"/>
<stop offset="1" stop-color="#ED3554"/>
</linearGradient>
<linearGradient id="paint5_linear" x1="-6.98064" y1="23.6627" x2="22.6586" y2="-5.9765" gradientUnits="userSpaceOnUse">
<stop stop-color="#009DDE"/>
<stop offset="0.5" stop-color="#694D9F"/>
<stop offset="1" stop-color="#ED3554"/>
</linearGradient>
<linearGradient id="paint6_linear" x1="1.47474" y1="32.1183" x2="31.114" y2="2.47906" gradientUnits="userSpaceOnUse">
<stop stop-color="#009DDE"/>
<stop offset="0.5" stop-color="#694D9F"/>
<stop offset="1" stop-color="#ED3554"/>
</linearGradient>
</defs>
</svg>
