<svg width="40" height="40" viewBox="0 0 40 40" fill="none" xmlns="http://www.w3.org/2000/svg">
<path d="M20 39.7814C30.5757 39.7814 39.1489 31.1207 39.1489 20.4372C39.1489 9.75362 30.5757 1.0929 20 1.0929C9.42434 1.0929 0.851074 9.75362 0.851074 20.4372C0.851074 31.1207 9.42434 39.7814 20 39.7814Z" fill="white"/>
<path d="M20 39.3443C30.5757 39.3443 39.1489 30.6835 39.1489 20C39.1489 9.31645 30.5757 0.655731 20 0.655731C9.42434 0.655731 0.851074 9.31645 0.851074 20C0.851074 30.6835 9.42434 39.3443 20 39.3443Z" fill="black"/>
<path fill-rule="evenodd" clip-rule="evenodd" d="M20 1.45424C9.72194 1.45424 1.42003 9.77427 1.42003 20C1.42003 30.2257 9.72194 38.5458 20 38.5458C30.2781 38.5458 38.58 30.2257 38.58 20C38.58 9.77427 30.2781 1.45424 20 1.45424ZM0 20C0 8.93749 8.97093 0 20 0C31.0291 0 40 8.93749 40 20C40 31.0625 31.0291 40 20 40C8.97093 40 0 31.0625 0 20Z" fill="white"/>
<path fill-rule="evenodd" clip-rule="evenodd" d="M20.6383 13.3484C20.6383 12.9779 20.4002 12.6776 20.1065 12.6776C20.1065 12.6776 20.1062 12.6776 20.1059 12.6776C19.8125 12.6776 19.5745 12.9779 19.5745 13.3484C19.5745 16.0517 19.5745 26.1336 19.5745 28.8373C19.5745 29.2078 19.8125 29.5082 20.1059 29.5082C20.1062 29.5082 20.1065 29.5082 20.1065 29.5082C20.4002 29.5082 20.6383 29.2078 20.6383 28.8373C20.6383 26.1336 20.6383 16.0517 20.6383 13.3484V13.3484Z" fill="white"/>
<path fill-rule="evenodd" clip-rule="evenodd" d="M18.2309 26.0293C17.8899 26.029 17.6131 26.3291 17.6128 26.6998C17.6128 26.6998 17.6128 26.7002 17.6128 26.7005C17.6125 27.0708 17.8889 27.3715 18.2299 27.3718C19.1787 27.3726 20.9843 27.3743 21.9331 27.3751C22.2742 27.3754 22.551 27.0752 22.5513 26.705C22.5513 26.7046 22.5513 26.7042 22.5513 26.7042C22.5516 26.3336 22.2753 26.0329 21.9341 26.0326C20.9853 26.0317 19.1797 26.0301 18.2309 26.0293V26.0293Z" fill="white"/>
<path fill-rule="evenodd" clip-rule="evenodd" d="M15.1777 17.2521C14.8365 17.2518 14.5599 17.552 14.5596 17.9226C14.5596 17.9226 14.5596 17.923 14.5596 17.9234C14.5593 18.2936 14.8354 18.5943 15.1767 18.5946C17.1158 18.5964 23.0674 18.6017 25.0064 18.6035C25.3474 18.6038 25.6243 18.3036 25.6246 17.9334C25.6246 17.933 25.6246 17.9326 25.6246 17.9326C25.6249 17.562 25.3485 17.2613 25.0075 17.261C23.0684 17.2592 17.1168 17.2538 15.1777 17.2521V17.2521Z" fill="white"/>
<path fill-rule="evenodd" clip-rule="evenodd" d="M17.2144 13.8603C16.9729 13.5986 16.5818 13.599 16.3408 13.8614C16.3408 13.8614 16.3405 13.8617 16.3403 13.862C16.0995 14.124 16.0999 14.5489 16.3414 14.8106C17.6715 16.2523 21.6593 20.5749 22.9894 22.0166C23.2309 22.2783 23.622 22.2779 23.8627 22.0158C23.863 22.0155 23.8632 22.0152 23.8632 22.0152C24.1042 21.7529 24.1038 21.328 23.8623 21.0663C22.5323 19.6246 18.5444 15.302 17.2144 13.8603V13.8603Z" fill="white"/>
<path fill-rule="evenodd" clip-rule="evenodd" d="M16.3495 21.0778C16.1087 21.3403 16.1094 21.7651 16.3511 22.0267C16.3511 22.0267 16.3514 22.027 16.3516 22.0273C16.593 22.2886 16.9841 22.2879 17.225 22.0254C18.5513 20.5796 22.5279 16.2449 23.8542 14.7991C24.095 14.5366 24.0943 14.1118 23.8528 13.8504C23.8526 13.8502 23.8523 13.8499 23.8523 13.8499C23.6107 13.5883 23.2195 13.589 22.9787 13.8515C21.6524 15.2973 17.6758 19.632 16.3495 21.0778V21.0778Z" fill="white"/>
<path fill-rule="evenodd" clip-rule="evenodd" d="M20 3.67588C10.8065 3.67588 3.37098 11.0919 3.37098 20.2186C3.37098 29.3452 10.8065 36.7613 20 36.7613C29.1936 36.7613 36.6291 29.3452 36.6291 20.2186C36.6291 11.0919 29.1936 3.67588 20 3.67588ZM2.55322 20.2186C2.55322 10.6118 10.374 2.84152 20 2.84152C29.6261 2.84152 37.4468 10.6118 37.4468 20.2186C37.4468 29.8253 29.6261 37.5956 20 37.5956C10.374 37.5956 2.55322 29.8253 2.55322 20.2186Z" fill="#F0827D"/>
</svg>
