<svg width="40" height="40" viewBox="0 0 40 40" fill="none" xmlns="http://www.w3.org/2000/svg">
<mask id="mask0" style="mask-type:alpha" maskUnits="userSpaceOnUse" x="0" y="0" width="40" height="40">
<circle cx="20" cy="20" r="20" fill="#FFFDFE"/>
</mask>
<g mask="url(#mask0)">
<circle cx="20" cy="20" r="20" fill="#2D003F"/>
<path d="M33.0805 11.0442C32.79 9.9256 31.8564 8.80703 30.1758 7.56178C28.8271 6.56984 27.3955 6 26.2543 6C26.0261 6 25.8186 6.02111 25.6112 6.06332C25.0925 6.16884 24.636 6.54874 24.3455 7.1186C23.9928 7.79394 23.9098 8.7015 24.1381 9.25021C24.221 9.41906 24.3248 9.63012 24.4493 9.82007C23.3496 10.4954 22.7272 10.6854 22.6442 10.7065C25.5074 11.6774 27.8935 13.7034 29.3873 16.3416L29.4081 16.0884C29.4703 15.3919 29.6778 14.5899 29.9683 13.7668C30.2588 13.8512 30.5492 13.8934 30.8397 13.8934C31.6073 13.8934 32.2713 13.5768 32.6863 13.007C33.1012 12.4371 33.2672 11.6774 33.0805 11.0442Z" fill="#5E12A0"/>
<path d="M30.0928 13.1548C31.9809 13.6824 32.7486 12.205 32.4996 11.2131C32.2298 10.2211 31.3585 9.20808 29.8231 8.06841C28.2877 6.92873 26.7316 6.46439 25.7357 6.67544C24.7398 6.88652 24.4493 8.42716 24.6983 9.01813C24.802 9.2503 25.0303 9.58799 25.3415 9.96786C24.9473 10.2422 24.5738 10.4533 24.2626 10.6432C26.1714 11.5085 27.8313 12.8593 29.0762 14.5477C29.2214 13.9779 29.4289 13.4714 29.6156 13.0281C29.7609 13.0492 29.9268 13.0915 30.0928 13.1548Z" fill="url(#paint0_radial)"/>
<path d="M19.2829 33.838C25.6884 33.838 30.8811 28.5559 30.8811 22.0401C30.8811 15.5243 25.6884 10.2422 19.2829 10.2422C12.8774 10.2422 7.68469 15.5243 7.68469 22.0401C7.68469 28.5559 12.8774 33.838 19.2829 33.838Z" fill="url(#paint1_radial)"/>
<path opacity="0.6" d="M31.5451 10.2421C29.9682 8.55368 28.6404 8.11045 27.0428 7.7517C25.7979 7.45621 26.1298 6.73862 27.6444 6.88635C26.9182 6.6331 26.2336 6.56978 25.7356 6.6753C24.7397 6.88635 24.4493 8.42704 24.6982 9.01801C24.802 9.25018 25.0302 9.58783 25.3414 9.96774C24.7812 10.3476 24.304 10.622 23.9098 10.8331C24.0965 10.9175 24.3248 11.023 24.5945 11.1707C25.2999 11.5506 26.0676 12.1838 26.0676 12.1838C24.9057 11.1707 25.1547 10.7064 26.7523 9.56672C27.2502 9.20796 28.1631 9.25018 29.0138 9.69336C29.8645 10.1366 30.8604 11.2552 30.8604 11.2552L29.906 13.1124C29.9682 13.1335 30.0305 13.1547 30.0927 13.1758C30.6944 13.3446 31.1716 13.3024 31.5451 13.1547C31.9808 12.8803 33.1219 11.9517 31.5451 10.2421Z" fill="#A98698"/>
<path d="M27.0219 8.76491C27.4369 8.93375 27.9764 9.22924 28.6403 9.67247C29.4287 10.2001 30.1134 10.791 30.5491 11.2554C29.8229 12.2262 29.3457 13.5558 29.0552 14.4845C29.2005 14.6955 29.3665 14.9066 29.5117 15.1176C29.6569 14.59 29.9059 13.8091 30.2379 13.0282C30.3209 13.0493 30.4246 13.0493 30.5284 13.0493C30.7773 13.0493 31.0678 13.0071 31.296 12.8172C31.462 12.6905 31.6488 12.4584 31.628 12.0362C31.628 11.6352 31.3168 11.1287 30.6736 10.5167C30.2171 10.0734 29.5947 9.58804 28.9722 9.14482C27.1879 7.94182 25.943 7.60412 25.3828 8.17398C25.0093 8.55385 25.0509 9.01818 25.1754 9.35588C24.5114 9.7991 23.9512 10.1156 23.5778 10.3267C23.8267 10.4111 24.055 10.5167 24.3039 10.6222C24.9679 10.2634 25.9223 9.65136 27.0219 8.76491ZM30.9433 11.783C31.0056 11.8885 31.0263 11.994 31.0263 12.0574C31.0263 12.2473 30.9641 12.3106 30.9226 12.3528C30.8396 12.4162 30.6736 12.4584 30.5284 12.4584C30.6528 12.2051 30.7981 11.994 30.9433 11.783ZM25.8186 8.63827C25.8808 8.57495 26.0468 8.53274 26.3165 8.57495C26.109 8.7438 25.9015 8.89154 25.6941 9.03928C25.6733 8.89154 25.694 8.7438 25.8186 8.63827Z" fill="#5E12A0"/>
<path d="M19.2829 9.54541C12.4983 9.54541 7 15.1383 7 22.0398C7 28.9412 12.4983 34.5341 19.2829 34.5341C26.0675 34.5341 31.5658 28.9412 31.5658 22.0398C31.5658 15.1383 26.0468 9.54541 19.2829 9.54541ZM19.2829 33.8377C12.8717 33.8377 7.68469 28.5613 7.68469 22.0398C7.68469 15.5182 12.8717 10.2419 19.2829 10.2419C25.6941 10.2419 30.8811 15.5182 30.8811 22.0398C30.8811 28.5613 25.6733 33.8377 19.2829 33.8377Z" fill="#5E12A0"/>
<path opacity="0.6" d="M19.2829 33.838C25.6884 33.838 30.8811 28.5559 30.8811 22.0401C30.8811 15.5243 25.6884 10.2422 19.2829 10.2422C12.8774 10.2422 7.68469 15.5243 7.68469 22.0401C7.68469 28.5559 12.8774 33.838 19.2829 33.838Z" fill="url(#paint2_linear)"/>
<path opacity="0.6" d="M19.2 32.4028C12.8718 31.3686 8.57696 25.3114 9.61436 18.8743C10.0708 16.025 11.4817 13.5979 13.4735 11.8462C10.5688 13.5557 8.41095 16.5315 7.83001 20.1617C6.81335 26.5988 11.1082 32.656 17.4156 33.6902C20.9428 34.2811 24.3455 33.1626 26.856 30.9676C24.636 32.2762 21.9387 32.846 19.2 32.4028Z" fill="#A98698"/>
<path opacity="0.6" d="M21.1297 10.4113C18.2042 9.92591 15.3617 10.6013 13.0379 12.0998C12.9964 12.142 12.9549 12.1842 12.9549 12.1842C13.8471 11.6355 15.1542 11.15 15.1542 11.15C11.793 13.1339 10.7556 15.3922 10.7556 15.3922C12.0627 12.8173 15.9011 11.0023 18.9096 10.8756C21.9181 10.749 23.8891 11.6566 26.2959 13.6194C28.7027 15.6032 30.1551 19.6555 30.0098 22.8635C29.8854 26.0715 28.2255 28.6675 28.2255 28.6675C29.3667 27.169 30.0514 26.0715 30.487 24.9529C30.57 24.6152 30.653 24.2775 30.6945 23.9187C31.7319 17.5027 27.4578 11.4455 21.1297 10.4113Z" fill="url(#paint3_linear)"/>
<path d="M30.3001 21.9346C30.3001 28.1184 25.3621 33.1415 19.2829 33.1415C13.2037 33.1415 8.24487 28.1184 8.24487 21.9346H30.3001Z" fill="url(#paint4_linear)"/>
<g opacity="0.6">
<path opacity="0.6" d="M29.4287 21.9346C29.4287 27.9707 24.7396 32.9094 18.8472 33.1415C18.9924 33.1415 19.1377 33.1415 19.2829 33.1415C25.3621 33.1415 30.3001 28.1184 30.3001 21.9346H29.4287Z" fill="url(#paint5_linear)"/>
</g>
<g opacity="0.7">
<path opacity="0.7" d="M9.80099 21.9346H8.24487C8.24487 28.1184 13.1829 33.1415 19.2622 33.1415C19.5319 33.1415 19.7808 33.1415 20.0298 33.1204C14.3241 32.6983 9.80099 27.8441 9.80099 21.9346Z" fill="url(#paint6_linear)"/>
</g>
<path d="M30.2794 22.04C30.2794 20.7525 28.0801 20.0139 25.1546 19.7606C23.0383 19.5918 20.9012 19.8028 18.453 20.5626C16.3367 21.1958 14.4278 21.0902 13.0377 20.9214C9.94622 20.5626 8.24487 20.5204 8.24487 22.04C8.24487 24.2349 12.6435 26.9786 19.2414 26.0289C22.5819 25.5435 24.3039 24.5515 26.275 23.8761C28.4121 23.1585 30.2794 23.1796 30.2794 22.04Z" fill="url(#paint7_linear)"/>
<path d="M22.893 16.7214C23.9243 16.7214 24.7603 15.8709 24.7603 14.8219C24.7603 13.7728 23.9243 12.9224 22.893 12.9224C21.8617 12.9224 21.0256 13.7728 21.0256 14.8219C21.0256 15.8709 21.8617 16.7214 22.893 16.7214Z" fill="white"/>
<path d="M25.9431 18.1357C26.3785 18.1357 26.7315 17.7767 26.7315 17.3337C26.7315 16.8908 26.3785 16.5317 25.9431 16.5317C25.5077 16.5317 25.1547 16.8908 25.1547 17.3337C25.1547 17.7767 25.5077 18.1357 25.9431 18.1357Z" fill="white"/>
<g opacity="0.6">
<path opacity="0.6" d="M28.765 13.3026C28.7442 13.3026 28.7234 13.3026 28.7234 13.3026C28.599 13.2815 28.516 13.1549 28.5367 13.0071C28.7234 12.0363 29.5119 11.1076 29.5534 11.0654C29.6364 10.9599 29.8024 10.9599 29.8854 11.0443C29.9891 11.1287 29.9891 11.2976 29.9061 11.382C29.8854 11.4031 29.1592 12.2684 28.9932 13.1126C28.9725 13.2393 28.8687 13.3026 28.765 13.3026Z" fill="url(#paint8_linear)"/>
</g>
<path opacity="0.2" d="M18.5188 30.8411C18.8397 30.8411 19.0997 30.5765 19.0997 30.2501C19.0997 29.9238 18.8397 29.6592 18.5188 29.6592C18.198 29.6592 17.9379 29.9238 17.9379 30.2501C17.9379 30.5765 18.198 30.8411 18.5188 30.8411Z" fill="white"/>
<g opacity="0.4">
<path opacity="0.6" d="M18.1833 30.6348C17.9551 30.4027 17.9551 30.0228 18.1833 29.7906C18.2249 29.7484 18.2663 29.7273 18.3078 29.6851C18.2249 29.7062 18.1626 29.7484 18.1004 29.8117C17.8721 30.0439 17.8721 30.4238 18.1004 30.6559C18.2871 30.8458 18.5776 30.888 18.8058 30.7614C18.5983 30.8458 18.3493 30.8036 18.1833 30.6348Z" fill="url(#paint9_linear)"/>
</g>
<path opacity="0.3" d="M18.7228 30.0814C18.7915 30.0814 18.8472 30.0247 18.8472 29.9548C18.8472 29.8848 18.7915 29.8281 18.7228 29.8281C18.654 29.8281 18.5983 29.8848 18.5983 29.9548C18.5983 30.0247 18.654 30.0814 18.7228 30.0814Z" fill="white"/>
<path opacity="0.2" d="M21.548 30.5457C21.8688 30.5457 22.1289 30.2811 22.1289 29.9547C22.1289 29.6283 21.8688 29.3638 21.548 29.3638C21.2271 29.3638 20.967 29.6283 20.967 29.9547C20.967 30.2811 21.2271 30.5457 21.548 30.5457Z" fill="white"/>
<g opacity="0.4">
<path opacity="0.6" d="M21.2125 30.3394C20.9843 30.1072 20.9843 29.7273 21.2125 29.4952C21.254 29.453 21.2956 29.4319 21.337 29.3896C21.254 29.4108 21.1918 29.453 21.1295 29.5163C20.9013 29.7485 20.9013 30.1283 21.1295 30.3605C21.3163 30.5504 21.6067 30.5927 21.835 30.466C21.6275 30.5504 21.3785 30.5082 21.2125 30.3394Z" fill="url(#paint10_linear)"/>
</g>
<path opacity="0.3" d="M21.7521 29.7855C21.8208 29.7855 21.8766 29.7288 21.8766 29.6589C21.8766 29.5889 21.8208 29.5322 21.7521 29.5322C21.6833 29.5322 21.6276 29.5889 21.6276 29.6589C21.6276 29.7288 21.6833 29.7855 21.7521 29.7855Z" fill="white"/>
<path opacity="0.2" d="M20.0505 31.9172C20.2912 31.9172 20.4863 31.7187 20.4863 31.4739C20.4863 31.2292 20.2912 31.0308 20.0505 31.0308C19.8099 31.0308 19.6149 31.2292 19.6149 31.4739C19.6149 31.7187 19.8099 31.9172 20.0505 31.9172Z" fill="white"/>
<g opacity="0.4">
<path opacity="0.6" d="M19.8015 31.7531C19.6355 31.5842 19.6355 31.2888 19.8015 31.12C19.8222 31.0989 19.8637 31.0777 19.8845 31.0566C19.8222 31.0777 19.7807 31.12 19.7393 31.1622C19.5732 31.331 19.5732 31.6265 19.7393 31.7953C19.8845 31.9431 20.092 31.9642 20.2787 31.8586C20.1127 31.9219 19.926 31.8797 19.8015 31.7531Z" fill="url(#paint11_linear)"/>
</g>
<path opacity="0.3" d="M20.1958 31.326C20.2416 31.326 20.2788 31.2883 20.2788 31.2416C20.2788 31.195 20.2416 31.1572 20.1958 31.1572C20.1499 31.1572 20.1128 31.195 20.1128 31.2416C20.1128 31.2883 20.1499 31.326 20.1958 31.326Z" fill="white"/>
<path opacity="0.2" d="M22.7272 31.6008C22.9679 31.6008 23.1629 31.4023 23.1629 31.1576C23.1629 30.9128 22.9679 30.7144 22.7272 30.7144C22.4866 30.7144 22.2915 30.9128 22.2915 31.1576C22.2915 31.4023 22.4866 31.6008 22.7272 31.6008Z" fill="white"/>
<g opacity="0.4">
<path opacity="0.6" d="M22.4782 31.4367C22.3122 31.2679 22.3122 30.9724 22.4782 30.8036C22.499 30.7824 22.5405 30.7613 22.5612 30.7402C22.499 30.7613 22.4575 30.8036 22.416 30.8458C22.25 31.0146 22.25 31.3101 22.416 31.4789C22.5612 31.6267 22.7687 31.6478 22.9554 31.5423C22.7894 31.6056 22.6027 31.5634 22.4782 31.4367Z" fill="url(#paint12_linear)"/>
</g>
<path opacity="0.3" d="M22.8723 31.0102C22.9181 31.0102 22.9553 30.9723 22.9553 30.9257C22.9553 30.8791 22.9181 30.8413 22.8723 30.8413C22.8265 30.8413 22.7893 30.8791 22.7893 30.9257C22.7893 30.9723 22.8265 31.0102 22.8723 31.0102Z" fill="white"/>
<path opacity="0.2" d="M16.0462 30.6301C16.5733 30.6301 17.0006 30.1955 17.0006 29.6593C17.0006 29.1231 16.5733 28.6885 16.0462 28.6885C15.5191 28.6885 15.0918 29.1231 15.0918 29.6593C15.0918 30.1955 15.5191 30.6301 16.0462 30.6301Z" fill="white"/>
<g opacity="0.4">
<path opacity="0.6" d="M15.5074 30.2711C15.1339 29.8912 15.1339 29.2791 15.5074 28.8992C15.5696 28.8359 15.6318 28.7937 15.7148 28.7515C15.5904 28.7937 15.4866 28.8781 15.3829 28.9625C15.0094 29.3424 15.0094 29.9545 15.3829 30.3344C15.6941 30.651 16.1713 30.7143 16.5448 30.4821C16.192 30.6299 15.7771 30.5665 15.5074 30.2711Z" fill="url(#paint13_linear)"/>
</g>
<path opacity="0.3" d="M16.3783 29.3635C16.4929 29.3635 16.5858 29.269 16.5858 29.1525C16.5858 29.0359 16.4929 28.9414 16.3783 28.9414C16.2637 28.9414 16.1708 29.0359 16.1708 29.1525C16.1708 29.269 16.2637 29.3635 16.3783 29.3635Z" fill="white"/>
<path opacity="0.2" d="M24.577 28.2449C25.1041 28.2449 25.5314 27.8103 25.5314 27.2741C25.5314 26.7379 25.1041 26.3032 24.577 26.3032C24.0499 26.3032 23.6226 26.7379 23.6226 27.2741C23.6226 27.8103 24.0499 28.2449 24.577 28.2449Z" fill="white"/>
<g opacity="0.4">
<path opacity="0.6" d="M24.0135 27.8863C23.64 27.5064 23.64 26.8943 24.0135 26.5144C24.0757 26.4511 24.1379 26.4089 24.2209 26.3667C24.0965 26.4089 23.9927 26.4933 23.889 26.5777C23.5155 26.9576 23.5155 27.5697 23.889 27.9496C24.2002 28.2662 24.6774 28.3295 25.0509 28.0974C24.6981 28.2451 24.304 28.1817 24.0135 27.8863Z" fill="url(#paint14_linear)"/>
</g>
<path opacity="0.3" d="M24.9056 26.9788C25.0202 26.9788 25.1131 26.8843 25.1131 26.7677C25.1131 26.6511 25.0202 26.5566 24.9056 26.5566C24.791 26.5566 24.6981 26.6511 24.6981 26.7677C24.6981 26.8843 24.791 26.9788 24.9056 26.9788Z" fill="white"/>
</g>
<defs>
<radialGradient id="paint0_radial" cx="0" cy="0" r="1" gradientUnits="userSpaceOnUse" gradientTransform="translate(32.1212 9.88343) scale(9.27324 9.43292)">
<stop stop-color="#FFEAFF" stop-opacity="0.6"/>
<stop offset="0.6807" stop-color="#A087C9"/>
<stop offset="1" stop-color="#10002F"/>
</radialGradient>
<radialGradient id="paint1_radial" cx="0" cy="0" r="1" gradientUnits="userSpaceOnUse" gradientTransform="translate(26.9619 13.9064) scale(22.6883 23.0789)">
<stop stop-color="#FFEAFF" stop-opacity="0.6"/>
<stop offset="0.6807" stop-color="#A087C9"/>
<stop offset="1" stop-color="#10002F"/>
</radialGradient>
<linearGradient id="paint2_linear" x1="17.4225" y1="33.6706" x2="21.2576" y2="10.4107" gradientUnits="userSpaceOnUse">
<stop stop-color="#81FFFF"/>
<stop offset="0.6202" stop-color="white" stop-opacity="0"/>
</linearGradient>
<linearGradient id="paint3_linear" x1="27.4568" y1="14.0281" x2="17.7168" y2="22.8136" gradientUnits="userSpaceOnUse">
<stop offset="0.2888" stop-color="white"/>
<stop offset="0.7796" stop-color="white" stop-opacity="0"/>
</linearGradient>
<linearGradient id="paint4_linear" x1="8.25421" y1="27.5315" x2="30.2948" y2="27.5315" gradientUnits="userSpaceOnUse">
<stop stop-color="#0002E9"/>
<stop offset="0.9952" stop-color="#FF00C7"/>
</linearGradient>
<linearGradient id="paint5_linear" x1="31.3381" y1="22.918" x2="19.1485" y2="34.2428" gradientUnits="userSpaceOnUse">
<stop offset="0.2888" stop-color="white"/>
<stop offset="0.7796" stop-color="white" stop-opacity="0"/>
</linearGradient>
<linearGradient id="paint6_linear" x1="8.25421" y1="27.5315" x2="20.0458" y2="27.5315" gradientUnits="userSpaceOnUse">
<stop stop-color="#000292"/>
<stop offset="0.9952" stop-color="#7D00C7"/>
</linearGradient>
<linearGradient id="paint7_linear" x1="8.26905" y1="22.971" x2="30.28" y2="22.971" gradientUnits="userSpaceOnUse">
<stop stop-color="#000292"/>
<stop offset="0.9952" stop-color="#BE00C7"/>
</linearGradient>
<linearGradient id="paint8_linear" x1="29.919" y1="10.9626" x2="28.2976" y2="13.5529" gradientUnits="userSpaceOnUse">
<stop offset="0.2888" stop-color="white"/>
<stop offset="0.7796" stop-color="white" stop-opacity="0"/>
</linearGradient>
<linearGradient id="paint9_linear" x1="17.9286" y1="30.273" x2="18.8064" y2="30.273" gradientUnits="userSpaceOnUse">
<stop offset="0.2888" stop-color="white"/>
<stop offset="0.7796" stop-color="white" stop-opacity="0"/>
</linearGradient>
<linearGradient id="paint10_linear" x1="20.9557" y1="29.9736" x2="21.8335" y2="29.9736" gradientUnits="userSpaceOnUse">
<stop offset="0.2888" stop-color="white"/>
<stop offset="0.7796" stop-color="white" stop-opacity="0"/>
</linearGradient>
<linearGradient id="paint11_linear" x1="19.612" y1="31.4838" x2="20.2711" y2="31.4838" gradientUnits="userSpaceOnUse">
<stop offset="0.2888" stop-color="white"/>
<stop offset="0.7796" stop-color="white" stop-opacity="0"/>
</linearGradient>
<linearGradient id="paint12_linear" x1="22.2798" y1="31.1666" x2="22.9388" y2="31.1666" gradientUnits="userSpaceOnUse">
<stop offset="0.2888" stop-color="white"/>
<stop offset="0.7796" stop-color="white" stop-opacity="0"/>
</linearGradient>
<linearGradient id="paint13_linear" x1="15.0932" y1="29.6838" x2="16.5268" y2="29.6838" gradientUnits="userSpaceOnUse">
<stop offset="0.2888" stop-color="white"/>
<stop offset="0.7796" stop-color="white" stop-opacity="0"/>
</linearGradient>
<linearGradient id="paint14_linear" x1="23.6073" y1="27.2983" x2="25.0409" y2="27.2983" gradientUnits="userSpaceOnUse">
<stop offset="0.2888" stop-color="white"/>
<stop offset="0.7796" stop-color="white" stop-opacity="0"/>
</linearGradient>
</defs>
</svg>
