<svg width="40" height="40" viewBox="0 0 40 40" fill="none" xmlns="http://www.w3.org/2000/svg">
<mask id="mask0" style="mask-type:alpha" maskUnits="userSpaceOnUse" x="0" y="0" width="40" height="40">
<circle cx="20" cy="20" r="20" fill="#FFFDFE"/>
</mask>
<g mask="url(#mask0)">
<circle cx="20" cy="20" r="20" fill="#222325"/>
<path d="M28.5741 18.1861C28.5851 19.3251 28.304 20.448 27.7575 21.4474C27.1714 22.4598 26.3032 23.2795 25.2589 23.8066C23.957 24.448 22.5169 24.7579 21.0665 24.7087H17.9774V32.0441H13.0078V11.6068H21.0717C22.4968 11.5632 23.9124 11.8523 25.2063 12.4511C26.2655 12.9535 27.1476 13.765 27.7364 14.7788C28.3103 15.8211 28.5993 16.9964 28.5741 18.1861ZM20.693 20.7491C21.4614 20.8101 22.2234 20.5701 22.8181 20.0797C23.2692 19.5522 23.5171 18.8809 23.5171 18.1867C23.5171 17.4926 23.2692 16.8213 22.8181 16.2937C22.2234 15.8033 21.4614 15.5633 20.693 15.6243H17.9774V20.753L20.693 20.7491Z" fill="white"/>
<path d="M28.5742 7H13V10.2876H28.5742V7Z" fill="#E50913"/>
</g>
</svg>
