<svg width="40" height="40" viewBox="0 0 40 40" fill="none" xmlns="http://www.w3.org/2000/svg">
<circle cx="20" cy="20" r="20" fill="#151A20"/>
<path d="M34.1413 5.85868C30.3603 2.07768 25.3439 0 20 0C8.97519 0 0 8.97519 0 20C0 31.0249 8.97519 40 20 40C25.3439 40 30.3603 37.9224 34.1413 34.1413C37.9224 30.3603 40 25.3439 40 20C40 14.6561 37.9224 9.63968 34.1413 5.85868ZM20 38.9705C9.53673 38.9705 1.02948 30.4632 1.02948 20C1.02948 9.53673 9.53673 1.02948 20 1.02948C30.4632 1.02948 38.9705 9.53673 38.9705 20C38.9705 30.4632 30.4632 38.9705 20 38.9705Z" fill="white"/>
<path d="M22.0304 17.8944C18.9326 16.4812 16.2559 15.2645 16.4525 12.3071C16.5367 11.1466 17.3696 10.454 18.0529 10.0797C18.9045 9.61172 20.0463 9.3684 21.0383 9.43391C23.6776 9.61172 25.7552 10.7255 27.7768 13.0371L28.5535 12.3633C26.3636 9.85507 23.9957 8.60097 21.1039 8.40442C20.8792 8.38572 20.6546 8.38572 20.4207 8.39507C20.3739 8.39507 20.3271 8.39507 20.2896 8.39507C18.3898 8.39507 16.3214 9.01278 14.7304 10.061C12.8586 11.2963 11.8104 12.9903 11.7824 14.834C11.7075 19.345 15.4417 20.8799 18.736 22.2369C21.7683 23.491 24.3982 24.5673 24.342 27.5341C24.314 29.5368 21.5624 30.6132 19.6252 30.6132C19.5971 30.6132 19.5783 30.6132 19.5503 30.6132V30.6224H19.5409C16.6771 30.5851 14.1315 29.387 11.9696 27.0662L11.2115 27.7681C13.5419 30.2762 16.415 31.6238 19.5316 31.6614C19.5783 31.6614 19.6252 31.6614 19.6719 31.6614C21.6841 31.6614 23.8554 31.1278 25.5213 30.2108C27.5616 29.097 28.75 27.4778 28.8716 25.6623C29.1806 21.1513 25.3809 19.4199 22.0304 17.8944ZM27.8422 25.5781C27.7206 27.4405 26.2419 28.6292 25.0252 29.2935C24.9129 29.3589 24.8006 29.4151 24.6883 29.4714C25.1095 28.9286 25.3622 28.2827 25.3809 27.5435C25.437 23.8747 22.2363 22.5551 19.1385 21.2823C15.8629 19.9346 12.7651 18.6525 12.8212 14.8434C12.8399 13.3553 13.729 11.9608 15.3107 10.9126C15.5447 10.7535 15.7973 10.6131 16.0594 10.4728C15.6944 10.9969 15.4791 11.5865 15.4417 12.2229C15.189 15.8916 18.4553 17.3796 21.6186 18.8116C24.9504 20.3464 28.1043 21.7877 27.8422 25.5781Z" fill="white"/>
</svg>
